<svg width="960" height="600" viewBox="0 0 960 600" fill="none" xmlns="http://www.w3.org/2000/svg">
  <rect width="960" height="600" fill="#FFF9ED"/>
  <path d="M120 300H288M408 300H552M672 300H840M480 168V250M480 350V432" stroke="#7A4DFF" stroke-width="8" stroke-linecap="round" stroke-dasharray="18 16"/>
  <rect x="88" y="228" width="188" height="144" rx="8" fill="#EFE3CB" stroke="#6B7D46" stroke-width="5"/>
  <rect x="386" y="110" width="188" height="144" rx="8" fill="#EFE3CB" stroke="#FF9F1C" stroke-width="5"/>
  <rect x="386" y="346" width="188" height="144" rx="8" fill="#EFE3CB" stroke="#FFD84D" stroke-width="5"/>
  <rect x="684" y="228" width="188" height="144" rx="8" fill="#EFE3CB" stroke="#7A4DFF" stroke-width="5"/>
  <circle cx="182" cy="300" r="30" fill="#FFD84D"/>
  <path d="M440 178H520M440 212H500M738 286H818M738 320H790M440 414H522" stroke="#3B2463" stroke-width="8" stroke-linecap="round"/>
  <path d="M770 104C736 80 692 84 666 118C710 138 746 134 770 104Z" fill="#6B7D46"/>
  <text x="72" y="548" fill="#3B2463" font-family="Arial, sans-serif" font-size="42" font-weight="700">AI WORKFLOW</text>
</svg>
